<svg width="16" height="16" viewBox="0 0 16 16" fill="none" xmlns="http://www.w3.org/2000/svg">
<path d="M7.99995 7.57607C9.81588 7.57607 11.288 6.10397 11.288 4.28803C11.288 2.4721 9.81588 1 7.99995 1C6.18402 1 4.71191 2.4721 4.71191 4.28803C4.71191 6.10397 6.18402 7.57607 7.99995 7.57607Z" fill="black" stroke="black" stroke-linecap="round"/>
<path d="M1.28294 12.6943C1.88324 10.4913 4.16232 9.45508 6.44516 9.45508H9.5547C11.8375 9.45508 14.1166 10.4913 14.7178 12.6943C14.8486 13.1725 14.9412 13.6603 14.995 14.1532C15.0514 14.6699 14.6248 15.0917 14.1063 15.0917H1.89358C1.37501 15.0917 0.94944 14.669 1.00487 14.1541C1.05855 13.661 1.15216 13.1728 1.28294 12.6943Z" fill="black" stroke="black" stroke-linecap="round"/>
</svg>
